<?xml version="1.0" standalone="no"?>
<!DOCTYPE svg PUBLIC "-//W3C//DTD SVG 20010904//EN"
 "http://www.w3.org/TR/2001/REC-SVG-20010904/DTD/svg10.dtd">
<svg version="1.0" xmlns="http://www.w3.org/2000/svg"
 width="460.000000pt" height="460.000000pt" viewBox="0 0 460.000000 460.000000"
 preserveAspectRatio="xMidYMid meet">
<metadata>
Created by potrace 1.11, written by Peter Selinger 2001-2013
</metadata>
<g transform="translate(0.000000,460.000000) scale(0.100000,-0.100000)"
fill="#000000" stroke="none">
<path d="M1408 4570 c-5 -36 -6 -36 52 -44 42 -6 44 -6 26 9 -14 11 -16 15 -5
15 19 -1 89 -34 117 -57 21 -17 22 -21 7 -33 -18 -15 -153 -16 -168 -1 -5 5
-31 7 -56 4 -26 -3 -107 0 -181 6 -74 5 -191 13 -260 16 -69 3 -181 10 -250
15 -69 5 -237 14 -375 20 -137 6 -265 13 -282 16 l-33 6 0 -541 0 -541 94 0
c52 0 150 -4 218 -9 68 -6 231 -15 363 -21 132 -6 254 -13 271 -16 l31 -4 6
-88 c6 -94 31 -192 48 -192 6 0 8 -7 5 -16 -8 -20 12 -47 27 -37 5 3 7 1 3 -5
-7 -12 23 -51 98 -130 l51 -53 -40 -34 c-22 -19 -49 -34 -60 -35 -17 0 -17 -2
-5 -10 13 -8 13 -10 -2 -10 -9 0 -18 4 -20 9 -2 6 -951 52 -1065 51 l-23 0 0
-1430 0 -1430 1060 0 1060 0 0 29 c0 16 3 36 6 44 7 19 -35 35 -46 17 -5 -8
-12 -5 -24 11 l-16 23 -17 -24 c-10 -14 -21 -34 -24 -45 -5 -15 -8 -11 -14 20
-4 22 -15 48 -23 58 -14 15 -14 20 -3 27 8 4 20 6 28 3 7 -3 13 -1 13 5 0 5
-15 12 -32 14 -18 3 -41 8 -50 12 -12 6 -17 2 -20 -16 l-4 -23 -11 26 c-7 15
-19 29 -27 32 -20 8 -21 46 -1 53 12 5 13 9 4 21 -10 11 -14 11 -20 1 -6 -10
-15 -7 -40 11 -25 19 -33 21 -40 10 -7 -11 -14 -8 -36 14 -24 23 -26 29 -13
37 17 11 16 11 -22 14 -38 2 -50 17 -52 66 -2 30 -9 47 -28 63 -50 44 -118
177 -89 177 6 0 11 -11 11 -25 0 -21 5 -25 31 -25 29 0 31 2 27 30 -3 17 0 33
5 37 5 3 8 -15 7 -43 -3 -68 -2 -74 15 -68 9 4 15 24 17 62 3 50 6 57 26 60
24 4 32 -23 10 -31 -7 -3 -1 -10 15 -16 16 -6 26 -15 22 -21 -3 -5 7 -16 22
-24 20 -11 23 -15 11 -16 -22 0 -23 -14 -2 -34 9 -10 33 -16 60 -16 24 0 44
-4 44 -10 0 -16 15 -12 45 12 21 17 39 21 74 19 45 -3 173 -50 139 -51 -10 0
-18 -7 -18 -15 0 -11 11 -15 40 -15 33 0 40 3 40 20 0 15 7 20 29 20 16 0 31
-6 34 -14 4 -10 28 -17 68 -22 54 -6 60 -9 45 -20 -20 -14 -13 -34 11 -34 15
0 14 -2 0 -18 -21 -23 -21 -32 -1 -32 20 0 66 35 57 44 -3 3 10 6 30 6 20 0
39 5 42 10 5 8 11 8 19 1 16 -13 26 -4 26 22 0 16 5 18 34 13 35 -7 64 13 51
34 -4 6 7 10 27 10 21 0 40 7 51 20 20 24 69 28 61 5 -4 -8 -1 -15 5 -15 6 0
11 9 11 20 0 11 5 20 10 20 6 0 10 5 10 10 0 7 -13 8 -36 4 -26 -5 -35 -3 -30
4 4 6 13 9 20 6 7 -3 27 6 44 20 37 32 46 33 38 2 -4 -15 -1 -26 7 -29 6 -2 8
-8 4 -13 -4 -5 -11 -4 -15 2 -4 6 -13 4 -24 -7 -12 -12 -13 -19 -5 -22 8 -3 4
-12 -10 -24 -13 -11 -23 -23 -23 -27 0 -19 -298 -316 -316 -316 -8 0 -14 -4
-14 -9 0 -13 -62 -71 -77 -71 -7 0 -13 -4 -13 -9 0 -10 -38 -34 -72 -47 -10
-3 -18 -10 -18 -15 0 -5 -6 -9 -12 -9 -7 0 -22 -7 -32 -15 -18 -13 124 -15
1192 -15 l1212 0 0 918 c0 677 -3 921 -11 929 -9 9 -9 37 0 113 8 71 11 481
11 1370 l0 1270 -1594 0 -1594 0 -4 -30z m157 -560 c-3 -5 -11 -10 -16 -10 -6
0 -7 5 -4 10 3 6 11 10 16 10 6 0 7 -4 4 -10z m67 -35 c6 -6 27 -10 47 -8 31
1 30 0 -11 -9 -27 -6 -48 -15 -48 -19 0 -10 93 -17 105 -7 13 11 45 10 45 -2
0 -5 -7 -7 -15 -4 -17 7 -19 -9 -5 -36 8 -15 6 -17 -10 -13 -11 3 -20 1 -20
-5 0 -12 73 -24 96 -15 12 4 15 3 10 -5 -4 -7 -3 -12 3 -12 5 0 12 -9 16 -19
4 -14 15 -19 43 -19 62 0 204 -36 262 -68 32 -17 33 -19 12 -22 -13 -2 -37 1
-54 7 -47 17 -56 13 -22 -8 25 -15 138 -51 160 -51 3 0 2 -5 -2 -11 -3 -6 0
-15 7 -20 11 -7 8 -14 -16 -34 -16 -13 -35 -24 -41 -25 -7 0 -14 -8 -18 -17
-3 -10 -9 -24 -12 -32 -5 -11 0 -13 24 -8 17 4 34 2 37 -3 4 -6 10 -8 14 -5 5
2 13 -7 20 -21 9 -20 17 -25 36 -22 13 3 26 2 27 -1 7 -14 68 -41 94 -41 43 0
97 -61 63 -72 -14 -5 -22 -65 -9 -73 5 -3 10 -1 10 6 0 7 9 4 20 -8 10 -12 29
-25 41 -28 16 -5 18 -9 8 -15 -10 -7 -10 -11 0 -24 12 -15 45 -11 36 4 -5 8
47 22 54 14 2 -2 -1 -16 -8 -31 -7 -16 -12 -30 -11 -32 1 -2 -4 -8 -12 -13
-10 -6 -6 -14 17 -34 17 -14 26 -24 20 -22 -29 10 -90 44 -93 51 -2 4 -10 7
-18 7 -8 0 -14 6 -15 13 0 9 -2 9 -6 0 -2 -7 12 -28 33 -47 27 -25 33 -34 19
-32 -10 1 -21 8 -23 15 -2 6 -22 21 -44 32 -22 11 -43 29 -45 40 -3 10 -10 19
-15 19 -6 0 -8 -7 -4 -15 3 -9 0 -15 -9 -15 -8 0 -15 9 -15 19 0 27 -20 38
-32 17 -12 -22 -34 -20 -76 6 -31 19 -33 22 -16 30 11 4 4 5 -19 2 -28 -5 -43
-2 -56 10 -10 10 -28 18 -39 19 -11 0 -18 5 -15 10 4 6 -8 7 -29 3 -25 -5 -39
-2 -48 8 -6 9 -26 15 -44 14 -17 -1 -42 5 -55 11 -15 8 -26 9 -30 3 -13 -20
-49 -23 -60 -5 -11 17 -11 17 -22 0 -5 -9 -14 -15 -19 -12 -12 8 -32 -31 -30
-58 4 -39 1 -47 -17 -40 -11 4 -14 3 -9 -5 5 -8 2 -10 -8 -6 -9 3 -16 14 -16
24 0 11 -4 22 -10 25 -6 3 -10 -4 -10 -17 l0 -23 -18 21 c-16 19 -44 36 -65
38 -15 2 -38 79 -33 108 3 15 1 30 -5 33 -5 4 -9 24 -7 46 1 21 -3 44 -9 50
-6 6 -9 18 -6 27 4 9 2 13 -3 9 -17 -10 -63 41 -70 78 -3 19 -11 35 -16 35 -6
0 -7 7 -4 16 3 8 -1 26 -10 40 -9 13 -13 24 -10 24 4 0 -1 14 -9 31 -9 16 -17
54 -19 83 -1 29 -6 58 -10 64 -8 14 61 85 75 76 5 -3 21 4 35 15 26 21 29 20
66 -14z m228 -125 c0 -5 -4 -10 -10 -10 -5 0 -10 5 -10 10 0 6 5 10 10 10 6 0
10 -4 10 -10z m115 -20 c3 -6 -1 -7 -9 -4 -18 7 -21 14 -7 14 6 0 13 -4 16
-10z m-591 -459 c17 -17 26 -31 20 -31 -5 0 -36 28 -69 62 -47 48 -51 54 -20
30 22 -16 53 -44 69 -61z m-263 14 c51 -25 103 -45 116 -45 27 0 30 -18 7 -62
-15 -29 -15 -31 9 -57 14 -14 32 -41 41 -59 10 -18 24 -36 32 -39 9 -3 19 -15
24 -27 5 -14 24 -27 48 -36 23 -7 43 -19 46 -26 3 -8 12 -14 21 -14 17 0 21
-39 6 -68 -5 -9 -14 -29 -21 -44 -7 -15 -22 -28 -34 -30 -39 -6 -246 168 -230
193 2 4 0 10 -6 14 -5 3 -11 16 -11 28 -1 12 -5 2 -9 -23 -6 -39 -4 -49 19
-80 20 -27 21 -32 6 -20 -42 31 -66 65 -60 86 3 15 -6 33 -31 60 l-35 39 6
-30 6 -30 -21 30 c-26 38 -37 95 -21 105 10 5 10 25 2 84 -12 86 -13 96 -7 96
3 0 46 -20 97 -45z m326 -77 c11 -13 23 -30 27 -38 4 -8 -1 -6 -11 5 -10 11
-27 28 -38 38 -10 9 -15 17 -9 17 6 0 20 -10 31 -22z m339 -175 c-3 -3 -13 -2
-23 2 -17 7 -17 8 2 15 19 7 34 -5 21 -17z m665 0 c13 -15 12 -15 -8 -4 -24
12 -29 21 -14 21 5 0 15 -7 22 -17z m226 -59 c-3 -3 -12 -4 -19 -1 -8 3 -5 6
6 6 11 1 17 -2 13 -5z m-1012 -177 c-4 -47 -11 -74 -22 -82 -13 -10 -14 -13 0
-26 8 -8 18 -29 21 -46 6 -24 3 -34 -11 -42 -11 -7 -14 -14 -8 -18 9 -7 12
-30 14 -130 1 -21 6 -33 15 -33 21 0 36 -23 26 -40 -7 -11 -10 -12 -10 -2 0 8
-8 12 -17 10 -10 -2 -18 -10 -18 -18 0 -11 9 -14 31 -12 26 2 37 -4 62 -34 17
-21 29 -41 26 -46 -3 -4 -1 -8 4 -8 20 0 3 -45 -28 -72 -25 -23 -39 -29 -61
-24 -15 3 -30 2 -33 -3 -7 -10 -136 -13 -136 -2 0 4 -11 6 -25 3 -19 -3 -27 1
-33 18 -10 26 -57 36 -80 18 -7 -7 -41 -12 -75 -12 -53 0 -66 4 -89 26 -16 14
-28 32 -28 40 0 8 -4 18 -9 24 -12 12 -23 111 -13 116 14 6 52 79 52 99 0 32
25 83 60 122 35 41 70 49 70 17 0 -31 28 -14 100 61 78 80 167 159 180 159 6
0 10 -7 10 -15 0 -8 5 -15 10 -15 6 0 8 11 4 26 -5 19 -4 25 5 20 8 -5 10 -29
6 -79z m-318 -123 c-3 -3 -12 -4 -19 -1 -8 3 -5 6 6 6 11 1 17 -2 13 -5z
m-214 -134 c3 -11 1 -23 -4 -26 -5 -3 -9 6 -9 20 0 31 6 34 13 6z m26 -59 c0
-3 -4 -15 -9 -26 -7 -16 -9 -17 -9 -3 -1 9 -4 24 -7 32 -5 12 -2 15 10 10 9
-3 16 -9 15 -13z m825 -43 c12 -17 18 -19 29 -9 17 13 43 6 51 -15 3 -9 10
-13 15 -10 5 3 21 -6 35 -19 15 -14 31 -25 37 -25 5 0 9 -4 9 -10 0 -5 11 -10
23 -10 13 0 27 -3 31 -7 4 -4 23 -8 44 -10 31 -2 56 -5 94 -12 17 -3 39 -64
33 -90 -3 -16 -8 -50 -10 -76 -2 -31 -11 -54 -24 -66 -24 -23 -30 -23 -67 -5
-16 8 -35 16 -43 18 -13 3 -42 18 -131 67 -36 20 -110 93 -110 109 0 6 -6 12
-13 15 -11 4 -77 118 -77 132 0 2 7 2 16 -2 14 -5 16 -2 10 20 -5 22 -3 27 13
27 11 0 27 -10 35 -22z m2136 -132 c13 -25 12 -39 -13 -153 -7 -34 -10 -68 -5
-75 12 -19 10 -28 -7 -28 -8 0 -15 6 -15 13 0 18 -50 77 -66 77 -7 0 -16 10
-19 21 -4 12 -23 37 -41 56 -37 37 -40 49 -20 76 12 15 20 17 48 9 26 -7 41
-5 68 9 45 25 54 24 70 -5z m190 -132 c0 -14 -4 -23 -9 -20 -5 3 -7 15 -4 26
7 28 13 25 13 -6z m-3037 -43 c-11 -35 -34 -81 -43 -86 -6 -4 -9 14 -8 44 1
28 6 51 10 51 4 0 8 7 8 15 0 12 3 13 19 3 11 -6 17 -18 14 -27z m167 -92 c0
-14 -16 -11 -30 6 -7 8 -18 15 -26 15 -16 0 -45 40 -38 52 6 9 94 -59 94 -73z
m2480 -9 c0 -37 -24 -45 -44 -15 -19 29 -20 47 -4 63 17 17 48 -14 48 -48z
m-2570 25 c5 -14 14 -25 20 -25 6 0 8 -5 4 -12 -5 -7 -11 -5 -21 7 -7 11 -13
14 -13 9 0 -21 82 -95 128 -115 26 -12 54 -27 62 -34 8 -7 32 -16 53 -19 21
-4 47 -16 58 -27 15 -15 28 -19 48 -14 77 17 115 -52 44 -81 -37 -16 -83 -7
-83 16 0 15 -19 12 -37 -6 -19 -19 -61 -11 -83 15 -9 10 -21 16 -28 13 -17 -5
-90 46 -97 69 -3 10 -21 27 -40 39 -19 12 -37 31 -40 43 -3 12 -11 31 -16 42
-12 24 4 75 22 75 8 0 8 4 -1 15 -9 11 -9 15 -1 15 6 0 16 -11 21 -25z m732 3
c2 -12 10 -23 18 -25 13 -4 13 -3 0 6 -8 6 -10 11 -5 11 15 0 37 -16 37 -26 0
-5 8 -17 19 -27 17 -16 20 -16 25 -3 7 18 44 13 80 -10 27 -16 94 -10 145 15
43 21 57 16 33 -10 -16 -17 -15 -18 10 -6 14 7 26 18 26 25 0 6 11 12 24 12
13 0 28 -6 33 -12 37 -47 9 -103 -46 -95 -19 3 -34 0 -42 -9 -15 -18 -33 -18
-49 1 -7 8 -19 15 -26 15 -19 0 -18 -36 1 -44 8 -3 12 -12 9 -21 -5 -11 -21
-15 -60 -15 -41 0 -54 -4 -54 -15 0 -18 -31 -20 -48 -3 -9 9 -12 9 -12 0 0 -6
-11 0 -25 14 -17 17 -24 32 -20 44 3 11 -2 28 -12 40 -10 12 -26 31 -35 42
-10 12 -18 28 -18 37 0 9 -7 25 -15 35 -17 22 -20 46 -6 46 5 0 11 -10 13 -22z
m1578 3 c0 -11 5 -23 10 -26 18 -11 11 -52 -9 -58 -37 -9 -44 10 -26 76 8 31
25 36 25 8z m565 -60 c3 -5 1 -12 -5 -16 -5 -3 -10 1 -10 9 0 18 6 21 15 7z
m-5 -35 c0 -3 -4 -8 -10 -11 -5 -3 -10 -1 -10 4 0 6 5 11 10 11 6 0 10 -2 10
-4z m-485 -16 c3 -5 -3 -10 -14 -10 -12 0 -21 5 -21 10 0 6 6 10 14 10 8 0 18
-4 21 -10z m240 -45 c-31 -25 -55 -32 -55 -15 0 6 6 10 14 10 7 0 19 7 26 15
7 8 20 15 29 15 11 0 7 -8 -14 -25z m-2692 -35 c5 0 8 -3 5 -6 -9 -8 90 -104
118 -114 22 -9 34 -30 16 -30 -14 0 -62 25 -62 32 0 4 -7 5 -15 2 -8 -4 -17 1
-21 9 -3 8 -16 18 -28 21 -17 4 -23 13 -23 30 0 14 -8 32 -17 41 -17 17 -21
46 -9 59 4 4 11 -4 16 -18 5 -14 14 -26 20 -26z m2565 34 c30 -21 28 -30 -8
-37 -35 -7 -53 -38 -69 -119 -11 -52 -11 -58 8 -77 10 -10 22 -17 25 -14 3 4
6 -1 6 -11 0 -9 -10 -21 -22 -26 -13 -5 -17 -9 -9 -9 8 -1 12 -3 10 -5 -2 -2
-6 -4 -9 -3 -3 1 -17 -11 -32 -26 -15 -15 -33 -27 -40 -27 -8 1 -5 6 6 15 27
20 11 19 -20 -1 -34 -23 -172 -15 -186 10 -5 9 -16 16 -23 16 -8 0 -21 15 -28
32 -11 26 -11 37 -1 57 19 37 32 40 74 20 49 -24 70 -24 70 -1 0 13 2 14 9 4
11 -18 45 -11 49 10 2 9 -13 27 -37 44 -38 28 -40 33 -32 87 0 4 23 7 51 7 50
0 117 28 133 56 11 19 47 18 75 -2z m-2654 -39 c3 -8 1 -15 -4 -15 -6 0 -10 7
-10 15 0 8 2 15 4 15 2 0 6 -7 10 -15z m-7 -31 c-3 -3 -12 -4 -19 -1 -8 3 -5
6 6 6 11 1 17 -2 13 -5z m68 -14 c3 -5 1 -10 -4 -10 -6 0 -11 5 -11 10 0 6 2
10 4 10 3 0 8 -4 11 -10z m-85 -21 c-21 -6 -22 -7 -5 -9 11 -1 27 -2 35 -1 13
2 13 1 0 -8 -11 -8 -11 -11 -2 -11 7 0 10 -5 6 -11 -4 -7 -9 -8 -13 -1 -3 5
-15 11 -26 13 -26 5 -32 36 -8 41 29 7 40 -5 13 -13z m2808 -5 c-2 -8 -16 -23
-33 -32 -16 -9 -33 -22 -37 -28 -11 -17 -58 -5 -51 12 3 8 11 14 18 14 6 0 20
9 29 19 16 17 29 23 69 30 5 0 7 -6 5 -15z m-2104 -20 c21 -20 20 -23 -8 -34
-51 -19 -93 20 -43 40 31 12 34 12 51 -6z m-584 -10 c0 -8 -4 -12 -10 -9 -5 3
-10 10 -10 16 0 5 5 9 10 9 6 0 10 -7 10 -16z m-100 -28 c8 -8 22 -16 30 -19
10 -4 8 -6 -7 -6 -12 -1 -25 4 -28 9 -4 6 -11 8 -16 5 -5 -4 5 -18 23 -33 20
-17 33 -22 35 -15 3 7 10 9 18 7 10 -4 11 -12 5 -29 -12 -31 -2 -38 27 -20 23
16 27 13 24 -17 -1 -9 14 -29 34 -45 19 -15 35 -34 35 -40 0 -7 9 -13 19 -13
11 0 23 -5 26 -11 4 -6 13 -8 21 -5 10 4 11 0 3 -21 -8 -23 -8 -24 6 -13 8 7
18 10 21 7 3 -3 -3 -10 -14 -16 -15 -8 -23 -7 -32 4 -16 19 -46 19 -54 0 -7
-19 19 -51 57 -72 27 -14 29 -28 4 -28 -7 0 -13 -8 -15 -18 -3 -14 3 -17 29
-15 17 2 34 -2 36 -8 5 -15 -53 -57 -70 -51 -7 3 -2 9 12 14 26 10 21 17 -21
27 -19 4 -28 2 -28 -5 0 -8 -7 -6 -18 4 -10 10 -24 17 -30 17 -7 0 -11 5 -10
12 2 7 -4 13 -12 14 -8 0 -23 2 -33 2 -10 1 -15 7 -12 12 3 6 2 10 -4 10 -6 0
-8 7 -5 15 5 11 -1 15 -20 15 -15 0 -29 7 -32 15 -4 8 -12 15 -20 15 -8 0 -14
4 -14 9 0 5 -3 17 -7 27 -4 12 -3 15 5 10 7 -4 12 -2 12 3 0 6 -5 11 -11 11
-5 0 -7 4 -4 10 3 5 -6 12 -20 16 -27 7 -33 19 -12 27 7 2 13 16 15 31 1 20
-3 26 -18 26 -11 0 -20 5 -20 10 0 6 5 10 10 10 6 0 10 7 10 15 0 8 -4 15 -9
15 -6 0 -5 13 1 33 6 17 11 40 11 50 1 14 7 17 27 12 14 -4 32 -12 40 -19z
m130 -6 c0 -5 -2 -10 -4 -10 -3 0 -8 5 -11 10 -3 6 -1 10 4 10 6 0 11 -4 11
-10z m177 -262 c-3 -8 -6 -5 -6 6 -1 11 2 17 5 13 3 -3 4 -12 1 -19z m25 -40
c-8 -8 -9 -4 -5 13 4 13 8 18 11 10 2 -7 -1 -18 -6 -23z m8 -88 c0 -5 -5 -10
-11 -10 -5 0 -7 5 -4 10 3 6 8 10 11 10 2 0 4 -4 4 -10z m50 -10 c0 -5 -2 -10
-4 -10 -3 0 -8 5 -11 10 -3 6 -1 10 4 10 6 0 11 -4 11 -10z m-366 -232 c-5 -7
-9 -34 -11 -61 -3 -54 -13 -78 -54 -125 -16 -18 -32 -45 -36 -60 -3 -15 -12
-33 -20 -40 -7 -7 -13 -23 -13 -34 0 -12 -11 -36 -25 -54 -14 -18 -25 -37 -25
-42 0 -4 -16 -27 -35 -49 -19 -23 -35 -45 -35 -50 0 -4 -18 -28 -39 -52 -38
-45 -39 -45 -65 -28 -31 21 -33 49 -5 75 11 11 19 28 17 38 -2 12 3 19 14 19
24 0 100 106 223 309 55 91 104 165 108 166 5 0 5 -6 1 -12z m2009 -338 l-35
-115 4 -175 c3 -96 8 -183 12 -192 5 -12 0 -21 -19 -34 -25 -16 -27 -16 -46 3
-19 19 -20 25 -10 96 8 53 8 92 0 129 -13 64 -13 136 -1 152 5 6 17 34 28 61
10 28 27 64 39 80 12 17 30 49 40 73 10 23 19 41 21 40 1 -2 -13 -55 -33 -118z
m-1988 -68 c-5 -25 -11 -37 -13 -28 -2 9 -8 16 -13 16 -5 0 -9 7 -9 16 0 9 5
12 12 8 7 -5 9 -1 6 12 -3 14 0 20 11 20 14 0 15 -6 6 -44z m365 -42 c0 -5 -2
-10 -4 -10 -3 0 -8 5 -11 10 -3 6 -1 10 4 10 6 0 11 -4 11 -10z m1330 0 c0 -5
-5 -10 -11 -10 -5 0 -7 5 -4 10 3 6 8 10 11 10 2 0 4 -4 4 -10z m40 0 c0 -5
-7 -10 -16 -10 -8 0 -12 5 -9 10 3 6 10 10 16 10 5 0 9 -4 9 -10z m-1400 -30
c0 -5 -4 -10 -10 -10 -5 0 -10 5 -10 10 0 6 5 10 10 10 6 0 10 -4 10 -10z
m1340 -31 c0 -13 4 -18 13 -13 8 5 7 2 -2 -9 -8 -10 -19 -16 -25 -14 -6 2 -21
-10 -33 -26 -20 -27 -23 -28 -29 -12 -5 12 -1 22 10 30 12 9 14 15 6 20 -8 5
-5 11 7 20 13 10 20 10 25 2 5 -8 8 -6 8 6 0 9 5 17 10 17 6 0 10 -9 10 -21z
m-1233 -351 c-3 -8 -6 -5 -6 6 -1 11 2 17 5 13 3 -3 4 -12 1 -19z"/>
<path d="M1488 2363 c6 -2 18 -2 25 0 6 3 1 5 -13 5 -14 0 -19 -2 -12 -5z"/>
<path d="M2365 2050 c3 -5 10 -10 16 -10 5 0 9 5 9 10 0 6 -7 10 -16 10 -8 0
-12 -4 -9 -10z"/>
<path d="M2438 2043 c7 -3 16 -2 19 1 4 3 -2 6 -13 5 -11 0 -14 -3 -6 -6z"/>
<path d="M1277 1663 c-12 -11 -8 -23 8 -23 8 0 12 -6 9 -14 -6 -16 0 -21 39
-30 24 -6 27 -4 27 19 0 19 -7 26 -27 31 -16 4 -33 11 -39 15 -6 5 -14 6 -17
2z"/>
<path d="M1530 4510 c8 -5 20 -10 25 -10 6 0 3 5 -5 10 -8 5 -19 10 -25 10 -5
0 -3 -5 5 -10z"/>
<path d="M2780 610 c0 -5 5 -10 10 -10 6 0 10 5 10 10 0 6 -4 10 -10 10 -5 0
-10 -4 -10 -10z"/>
<path d="M1873 523 c-36 -5 -40 -17 -22 -57 20 -42 37 -39 44 7 4 23 13 45 19
49 6 4 7 7 1 6 -5 -1 -25 -3 -42 -5z"/>
<path d="M1960 500 c-9 -6 -10 -10 -3 -10 6 0 18 -3 27 -6 11 -4 16 -1 16 10
0 18 -17 21 -40 6z"/>
<path d="M2191 478 c-5 -14 -19 -29 -31 -33 -12 -4 -19 -12 -16 -18 3 -7 9
-20 12 -29 10 -28 43 -22 55 9 6 15 16 31 22 35 9 6 9 10 1 16 -6 4 -16 16
-22 27 -10 19 -11 19 -21 -7z m-6 -48 c-3 -5 -10 -10 -16 -10 -5 0 -9 5 -9 10
0 6 7 10 16 10 8 0 12 -4 9 -10z"/>
<path d="M1886 371 c-3 -5 5 -11 19 -13 20 -4 23 -3 14 8 -13 16 -25 18 -33 5z"/>
<path d="M1936 215 c-4 -10 1 -15 14 -15 13 0 18 5 14 15 -4 8 -10 15 -14 15
-4 0 -10 -7 -14 -15z"/>
</g>
</svg>
